<svg id="Layer_1" data-name="Layer 1" xmlns="http://www.w3.org/2000/svg" viewBox="0 0 612 350"><defs><style>.cls-1,.cls-6{fill:#979a83;}.cls-1,.cls-8{opacity:0.41;}.cls-1,.cls-2,.cls-3,.cls-4,.cls-5,.cls-6,.cls-7,.cls-8{isolation:isolate;}.cls-2,.cls-3,.cls-5,.cls-7{fill:#dcb6ab;}.cls-2{opacity:0.63;}.cls-3{opacity:0.76;}.cls-4,.cls-8{fill:#f2eeed;}.cls-4{opacity:0.54;}.cls-5{opacity:0.91;}.cls-6,.cls-7{opacity:0.43;}</style></defs><path class="cls-1" d="M432.6,66.7c14.8,7.5,34.6,12.9,52.7,14.6,17.3,1.7,37.3-3,53.5,2.6a33.83,33.83,0,0,1,4.4,1.8c10.7,5.3,15.2,14.7,21.1,23a46.6,46.6,0,0,0,14.5,13.8,36.76,36.76,0,0,0,22.7,4.7,38.09,38.09,0,0,0,10.5-2.9V0H415.9C403.1,23.6,400.1,50.2,432.6,66.7Z"/><path class="cls-2" d="M612,240.4c-11.4-8.2-24.7-14.4-38.3-19.4-19.8-7.4-39.8-15.9-60-22.3-18.9-5.9-47.5-19.7-66.2-7-33.4,22.5,13.9,59.3,12.6,85.7-1.3,25-35.1,6.7-42.4,21.3-1.8,3.5-.9,7.8,1.2,11.1a56.11,56.11,0,0,0,10.5,12.3c14.4,12.7,35.7,21,54.5,27.9H612Z"/><path class="cls-3" d="M411.1,174.8c-18.4-13.1-60.9-20.5-54.9-3.6,5.5,15.4,11.9,35.9,23.8,47.6,13.7,13.5,23-13.3,32.6-19.8,4.4-3,8.3-6.7,7.1-12.6C418.8,181.7,415,177.5,411.1,174.8Z"/><path class="cls-4" d="M465.8,121.2c4.5.2,8.6-1.3,12.9-2.4,14.1-3.6,27.9-7.7,41.2-12.5,22.7-8.2,65.2-22.4,63.7-48.9-1.1-18.7-32.6-43.2-54-45.2-17.2-1.7-26.9,11-36.5,19.6-18.9,17-43.9,37.9-48.4,63.4-1.4,8.1,3.3,19.9,14.4,24.6A21.64,21.64,0,0,0,465.8,121.2Z"/><path class="cls-5" d="M547.6,291.4c-32.1,15.7-40.4-25.7-39-39.3,5.5-52.4,65.2-97.5,84-66.4,7.6,12.6,5,26.1-5.4,39.8-7.5,9.7-15.8,19.5-19,30-3.5,11.7-.6,24.1-16.4,33.7C550.3,290,548.9,290.8,547.6,291.4Z"/><path class="cls-6" d="M447.3,139.8c-8.7,6.6,4.2,33.2,7.5,40,6.3,13,14.7,27.3,30.1,30.2,9.3,1.8,20.1-3.5,22.3-12.7,1-4.2.1-8.6-1.1-12.6-6.9-23.4-25.1-40-48.6-45.7C452.6,137.8,449.4,138.3,447.3,139.8Z"/><path class="cls-7" d="M298.6,38.9c1,5.2,3.3,10.1,5.9,14.9A428.12,428.12,0,0,0,329.8,96c10.5,15.2,39.8,58.6,62.7,38.8,20.3-17.6,28.2-47.9,14-71.6-8.9-14.8-20.4-29.4-34-40.1-12.8-10-29.5-15.9-44-5.6-4.1,2.9-8.8,6-14,5.9-3.8-.1-11-3.6-14.1-.1a9.58,9.58,0,0,0-1.8,5.2A40.23,40.23,0,0,0,298.6,38.9Z"/><path class="cls-8" d="M366.7,281.7c-.8,10.1-2.4,20.1-2.4,30.3.1,39.9,26.1,27.6,46.8,6.8,14.6-14.7,37.8-41,24.9-64.1-7.7-13.7-34.3-26.4-49.3-23-19,4.3-19.1,26.9-19.6,43.3C367,277.2,366.9,279.5,366.7,281.7Z"/></svg>